<?xml version="1.0" encoding="UTF-8" standalone="no"?>
<!DOCTYPE svg PUBLIC "-//W3C//DTD SVG 1.1//EN"
 "http://www.w3.org/Graphics/SVG/1.1/DTD/svg11.dtd">
<!-- Generated by graphviz version 2.30.1 (20180420.1509)
 -->
<!-- Title: snakemake_dag Pages: 1 -->
<svg width="765pt" height="980pt"
 viewBox="0.00 0.00 764.79 980.00" xmlns="http://www.w3.org/2000/svg" xmlns:xlink="http://www.w3.org/1999/xlink">
<g id="graph0" class="graph" transform="scale(1 1) rotate(0) translate(4 976)">
<title>snakemake_dag</title>
<polygon fill="white" stroke="white" points="-4,5 -4,-976 761.794,-976 761.794,5 -4,5"/>
<!-- 0 -->
<g id="node1" class="node"><title>0</title>
<path fill="none" stroke="#61d856" stroke-width="2" stroke-dasharray="5,2" d="M403.794,-36C403.794,-36 373.794,-36 373.794,-36 367.794,-36 361.794,-30 361.794,-24 361.794,-24 361.794,-12 361.794,-12 361.794,-6 367.794,-0 373.794,-0 373.794,-0 403.794,-0 403.794,-0 409.794,-0 415.794,-6 415.794,-12 415.794,-12 415.794,-24 415.794,-24 415.794,-30 409.794,-36 403.794,-36"/>
<text text-anchor="middle" x="388.794" y="-15.5" font-family="sans" font-size="10.00">all</text>
</g>
<!-- 1 -->
<g id="node2" class="node"><title>1</title>
<path fill="none" stroke="#56a2d8" stroke-width="2" stroke-dasharray="5,2" d="M413.044,-108C413.044,-108 364.544,-108 364.544,-108 358.544,-108 352.544,-102 352.544,-96 352.544,-96 352.544,-84 352.544,-84 352.544,-78 358.544,-72 364.544,-72 364.544,-72 413.044,-72 413.044,-72 419.044,-72 425.044,-78 425.044,-84 425.044,-84 425.044,-96 425.044,-96 425.044,-102 419.044,-108 413.044,-108"/>
<text text-anchor="middle" x="388.794" y="-87.5" font-family="sans" font-size="10.00">join_results</text>
</g>
<!-- 1&#45;&gt;0 -->
<g id="edge1" class="edge"><title>1&#45;&gt;0</title>
<path fill="none" stroke="grey" stroke-width="2" d="M388.794,-71.6966C388.794,-63.9827 388.794,-54.7125 388.794,-46.1124"/>
<polygon fill="grey" stroke="grey" points="392.294,-46.1043 388.794,-36.1043 385.294,-46.1044 392.294,-46.1043"/>
</g>
<!-- 2 -->
<g id="node3" class="node"><title>2</title>
<path fill="none" stroke="#56d0d8" stroke-width="2" stroke-dasharray="5,2" d="M141.794,-180C141.794,-180 33.7943,-180 33.7943,-180 27.7943,-180 21.7943,-174 21.7943,-168 21.7943,-168 21.7943,-156 21.7943,-156 21.7943,-150 27.7943,-144 33.7943,-144 33.7943,-144 141.794,-144 141.794,-144 147.794,-144 153.794,-150 153.794,-156 153.794,-156 153.794,-168 153.794,-168 153.794,-174 147.794,-180 141.794,-180"/>
<text text-anchor="middle" x="87.7943" y="-159.5" font-family="sans" font-size="10.00">demuxlet_results_temp</text>
</g>
<!-- 2&#45;&gt;1 -->
<g id="edge2" class="edge"><title>2&#45;&gt;1</title>
<path fill="none" stroke="grey" stroke-width="2" d="M153.85,-145.638C210.839,-132.385 291.713,-113.577 342.171,-101.843"/>
<polygon fill="grey" stroke="grey" points="343.202,-105.196 352.149,-99.5221 341.616,-98.3783 343.202,-105.196"/>
</g>
<!-- 3 -->
<g id="node4" class="node"><title>3</title>
<path fill="none" stroke="#566bd8" stroke-width="2" stroke-dasharray="5,2" d="M299.794,-180C299.794,-180 183.794,-180 183.794,-180 177.794,-180 171.794,-174 171.794,-168 171.794,-168 171.794,-156 171.794,-156 171.794,-150 177.794,-144 183.794,-144 183.794,-144 299.794,-144 299.794,-144 305.794,-144 311.794,-150 311.794,-156 311.794,-156 311.794,-168 311.794,-168 311.794,-174 305.794,-180 299.794,-180"/>
<text text-anchor="middle" x="241.794" y="-159.5" font-family="sans" font-size="10.00">freemuxlet_results_temp</text>
</g>
<!-- 3&#45;&gt;1 -->
<g id="edge3" class="edge"><title>3&#45;&gt;1</title>
<path fill="none" stroke="grey" stroke-width="2" d="M277.755,-143.876C297.672,-134.392 322.616,-122.513 343.814,-112.419"/>
<polygon fill="grey" stroke="grey" points="345.427,-115.528 352.951,-108.068 342.417,-109.208 345.427,-115.528"/>
</g>
<!-- 4 -->
<g id="node5" class="node"><title>4</title>
<path fill="none" stroke="#56b1d8" stroke-width="2" stroke-dasharray="5,2" d="M435.794,-180C435.794,-180 341.794,-180 341.794,-180 335.794,-180 329.794,-174 329.794,-168 329.794,-168 329.794,-156 329.794,-156 329.794,-150 335.794,-144 341.794,-144 341.794,-144 435.794,-144 435.794,-144 441.794,-144 447.794,-150 447.794,-156 447.794,-156 447.794,-168 447.794,-168 447.794,-174 441.794,-180 435.794,-180"/>
<text text-anchor="middle" x="388.794" y="-159.5" font-family="sans" font-size="10.00">scSplit_results_temp</text>
</g>
<!-- 4&#45;&gt;1 -->
<g id="edge4" class="edge"><title>4&#45;&gt;1</title>
<path fill="none" stroke="grey" stroke-width="2" d="M388.794,-143.697C388.794,-135.983 388.794,-126.712 388.794,-118.112"/>
<polygon fill="grey" stroke="grey" points="392.294,-118.104 388.794,-108.104 385.294,-118.104 392.294,-118.104"/>
</g>
<!-- 5 -->
<g id="node6" class="node"><title>5</title>
<path fill="none" stroke="#56d873" stroke-width="2" stroke-dasharray="5,2" d="M589.794,-180C589.794,-180 477.794,-180 477.794,-180 471.794,-180 465.794,-174 465.794,-168 465.794,-168 465.794,-156 465.794,-156 465.794,-150 471.794,-144 477.794,-144 477.794,-144 589.794,-144 589.794,-144 595.794,-144 601.794,-150 601.794,-156 601.794,-156 601.794,-168 601.794,-168 601.794,-174 595.794,-180 589.794,-180"/>
<text text-anchor="middle" x="533.794" y="-159.5" font-family="sans" font-size="10.00">souporcell_results_temp</text>
</g>
<!-- 5&#45;&gt;1 -->
<g id="edge5" class="edge"><title>5&#45;&gt;1</title>
<path fill="none" stroke="grey" stroke-width="2" d="M498.323,-143.876C478.677,-134.392 454.072,-122.513 433.162,-112.419"/>
<polygon fill="grey" stroke="grey" points="434.677,-109.264 424.15,-108.068 431.634,-115.568 434.677,-109.264"/>
</g>
<!-- 6 -->
<g id="node7" class="node"><title>6</title>
<path fill="none" stroke="#56d8c9" stroke-width="2" stroke-dasharray="5,2" d="M717.794,-180C717.794,-180 631.794,-180 631.794,-180 625.794,-180 619.794,-174 619.794,-168 619.794,-168 619.794,-156 619.794,-156 619.794,-150 625.794,-144 631.794,-144 631.794,-144 717.794,-144 717.794,-144 723.794,-144 729.794,-150 729.794,-156 729.794,-156 729.794,-168 729.794,-168 729.794,-174 723.794,-180 717.794,-180"/>
<text text-anchor="middle" x="674.794" y="-159.5" font-family="sans" font-size="10.00">vireo_results_temp</text>
</g>
<!-- 6&#45;&gt;1 -->
<g id="edge6" class="edge"><title>6&#45;&gt;1</title>
<path fill="none" stroke="grey" stroke-width="2" d="M619.659,-146.26C616.662,-145.488 613.693,-144.731 610.794,-144 550.248,-128.734 480.123,-112.18 435.154,-101.708"/>
<polygon fill="grey" stroke="grey" points="435.93,-98.2952 425.397,-99.4396 434.345,-105.113 435.93,-98.2952"/>
</g>
<!-- 7 -->
<g id="node8" class="node"><title>7</title>
<path fill="none" stroke="#567bd8" stroke-width="2" stroke-dasharray="5,2" d="M128.794,-252C128.794,-252 46.7943,-252 46.7943,-252 40.7943,-252 34.7943,-246 34.7943,-240 34.7943,-240 34.7943,-228 34.7943,-228 34.7943,-222 40.7943,-216 46.7943,-216 46.7943,-216 128.794,-216 128.794,-216 134.794,-216 140.794,-222 140.794,-228 140.794,-228 140.794,-240 140.794,-240 140.794,-246 134.794,-252 128.794,-252"/>
<text text-anchor="middle" x="87.7943" y="-231.5" font-family="sans" font-size="10.00">popscle_demuxlet</text>
</g>
<!-- 7&#45;&gt;2 -->
<g id="edge7" class="edge"><title>7&#45;&gt;2</title>
<path fill="none" stroke="grey" stroke-width="2" d="M87.7943,-215.697C87.7943,-207.983 87.7943,-198.712 87.7943,-190.112"/>
<polygon fill="grey" stroke="grey" points="91.2944,-190.104 87.7943,-180.104 84.2944,-190.104 91.2944,-190.104"/>
</g>
<!-- 8 -->
<g id="node9" class="node"><title>8</title>
<path fill="none" stroke="#56d8b9" stroke-width="2" stroke-dasharray="5,2" d="M286.044,-324C286.044,-324 197.544,-324 197.544,-324 191.544,-324 185.544,-318 185.544,-312 185.544,-312 185.544,-300 185.544,-300 185.544,-294 191.544,-288 197.544,-288 197.544,-288 286.044,-288 286.044,-288 292.044,-288 298.044,-294 298.044,-300 298.044,-300 298.044,-312 298.044,-312 298.044,-318 292.044,-324 286.044,-324"/>
<text text-anchor="middle" x="241.794" y="-303.5" font-family="sans" font-size="10.00">popscle_freemuxlet</text>
</g>
<!-- 8&#45;&gt;3 -->
<g id="edge8" class="edge"><title>8&#45;&gt;3</title>
<path fill="none" stroke="grey" stroke-width="2" d="M241.794,-287.871C241.794,-263.67 241.794,-219.211 241.794,-190.393"/>
<polygon fill="grey" stroke="grey" points="245.294,-190.189 241.794,-180.189 238.294,-190.189 245.294,-190.189"/>
</g>
<!-- 9 -->
<g id="node10" class="node"><title>9</title>
<path fill="none" stroke="#80d856" stroke-width="2" stroke-dasharray="5,2" d="M428.044,-252C428.044,-252 339.544,-252 339.544,-252 333.544,-252 327.544,-246 327.544,-240 327.544,-240 327.544,-228 327.544,-228 327.544,-222 333.544,-216 339.544,-216 339.544,-216 428.044,-216 428.044,-216 434.044,-216 440.044,-222 440.044,-228 440.044,-228 440.044,-240 440.044,-240 440.044,-246 434.044,-252 428.044,-252"/>
<text text-anchor="middle" x="383.794" y="-231.5" font-family="sans" font-size="10.00">scSplit_demultiplex</text>
</g>
<!-- 9&#45;&gt;4 -->
<g id="edge9" class="edge"><title>9&#45;&gt;4</title>
<path fill="none" stroke="grey" stroke-width="2" d="M385.03,-215.697C385.581,-207.983 386.243,-198.712 386.858,-190.112"/>
<polygon fill="grey" stroke="grey" points="390.351,-190.328 387.573,-180.104 383.369,-189.83 390.351,-190.328"/>
</g>
<!-- 10 -->
<g id="node11" class="node"><title>10</title>
<path fill="none" stroke="#d86656" stroke-width="2" stroke-dasharray="5,2" d="M613.044,-252C613.044,-252 470.544,-252 470.544,-252 464.544,-252 458.544,-246 458.544,-240 458.544,-240 458.544,-228 458.544,-228 458.544,-222 464.544,-216 470.544,-216 470.544,-216 613.044,-216 613.044,-216 619.044,-216 625.044,-222 625.044,-228 625.044,-228 625.044,-240 625.044,-240 625.044,-246 619.044,-252 613.044,-252"/>
<text text-anchor="middle" x="541.794" y="-237" font-family="sans" font-size="10.00">souporcell</text>
<text text-anchor="middle" x="541.794" y="-226" font-family="sans" font-size="10.00">pool: OneK1K_scRNA_Sample1</text>
</g>
<!-- 10&#45;&gt;5 -->
<g id="edge10" class="edge"><title>10&#45;&gt;5</title>
<path fill="none" stroke="grey" stroke-width="2" d="M539.817,-215.697C538.935,-207.983 537.876,-198.712 536.893,-190.112"/>
<polygon fill="grey" stroke="grey" points="540.362,-189.642 535.749,-180.104 533.407,-190.437 540.362,-189.642"/>
</g>
<!-- 11 -->
<g id="node12" class="node"><title>11</title>
<path fill="none" stroke="#d85656" stroke-width="2" stroke-dasharray="5,2" d="M689.794,-252C689.794,-252 659.794,-252 659.794,-252 653.794,-252 647.794,-246 647.794,-240 647.794,-240 647.794,-228 647.794,-228 647.794,-222 653.794,-216 659.794,-216 659.794,-216 689.794,-216 689.794,-216 695.794,-216 701.794,-222 701.794,-228 701.794,-228 701.794,-240 701.794,-240 701.794,-246 695.794,-252 689.794,-252"/>
<text text-anchor="middle" x="674.794" y="-231.5" font-family="sans" font-size="10.00">vireo</text>
</g>
<!-- 11&#45;&gt;6 -->
<g id="edge11" class="edge"><title>11&#45;&gt;6</title>
<path fill="none" stroke="grey" stroke-width="2" d="M674.794,-215.697C674.794,-207.983 674.794,-198.712 674.794,-190.112"/>
<polygon fill="grey" stroke="grey" points="678.294,-190.104 674.794,-180.104 671.294,-190.104 678.294,-190.104"/>
</g>
<!-- 12 -->
<g id="node13" class="node"><title>12</title>
<path fill="none" stroke="#b6d856" stroke-width="2" stroke-dasharray="5,2" d="M162.044,-396C162.044,-396 19.5443,-396 19.5443,-396 13.5443,-396 7.54428,-390 7.54428,-384 7.54428,-384 7.54428,-372 7.54428,-372 7.54428,-366 13.5443,-360 19.5443,-360 19.5443,-360 162.044,-360 162.044,-360 168.044,-360 174.044,-366 174.044,-372 174.044,-372 174.044,-384 174.044,-384 174.044,-390 168.044,-396 162.044,-396"/>
<text text-anchor="middle" x="90.7943" y="-381" font-family="sans" font-size="10.00">popscle_pileup</text>
<text text-anchor="middle" x="90.7943" y="-370" font-family="sans" font-size="10.00">pool: OneK1K_scRNA_Sample1</text>
</g>
<!-- 12&#45;&gt;7 -->
<g id="edge12" class="edge"><title>12&#45;&gt;7</title>
<path fill="none" stroke="grey" stroke-width="2" d="M45.7629,-359.86C30.2441,-351.527 14.5703,-339.814 5.79428,-324 -1.96942,-310.01 -1.85544,-302.053 5.79428,-288 12.707,-275.301 24.1166,-265.181 36.2589,-257.33"/>
<polygon fill="grey" stroke="grey" points="38.3812,-260.14 45.1761,-252.011 34.795,-254.128 38.3812,-260.14"/>
</g>
<!-- 12&#45;&gt;8 -->
<g id="edge14" class="edge"><title>12&#45;&gt;8</title>
<path fill="none" stroke="grey" stroke-width="2" d="M127.733,-359.876C148.284,-350.349 174.045,-338.407 195.883,-328.283"/>
<polygon fill="grey" stroke="grey" points="197.375,-331.45 204.975,-324.068 194.431,-325.099 197.375,-331.45"/>
</g>
<!-- 13 -->
<g id="node14" class="node"><title>13</title>
<path fill="none" stroke="#56d8a9" stroke-width="2" stroke-dasharray="5,2" d="M154.794,-324C154.794,-324 26.7943,-324 26.7943,-324 20.7943,-324 14.7943,-318 14.7943,-312 14.7943,-312 14.7943,-300 14.7943,-300 14.7943,-294 20.7943,-288 26.7943,-288 26.7943,-288 154.794,-288 154.794,-288 160.794,-288 166.794,-294 166.794,-300 166.794,-300 166.794,-312 166.794,-312 166.794,-318 160.794,-324 154.794,-324"/>
<text text-anchor="middle" x="90.7943" y="-303.5" font-family="sans" font-size="10.00">popscle_demuxlet_ind_files</text>
</g>
<!-- 12&#45;&gt;13 -->
<g id="edge18" class="edge"><title>12&#45;&gt;13</title>
<path fill="none" stroke="grey" stroke-width="2" d="M90.7943,-359.697C90.7943,-351.983 90.7943,-342.712 90.7943,-334.112"/>
<polygon fill="grey" stroke="grey" points="94.2944,-334.104 90.7943,-324.104 87.2944,-334.104 94.2944,-334.104"/>
</g>
<!-- 13&#45;&gt;7 -->
<g id="edge13" class="edge"><title>13&#45;&gt;7</title>
<path fill="none" stroke="grey" stroke-width="2" d="M90.0527,-287.697C89.7221,-279.983 89.3248,-270.712 88.9562,-262.112"/>
<polygon fill="grey" stroke="grey" points="92.4524,-261.945 88.5273,-252.104 85.4588,-262.245 92.4524,-261.945"/>
</g>
<!-- 14 -->
<g id="node15" class="node"><title>14</title>
<path fill="none" stroke="#ced856" stroke-width="2" stroke-dasharray="5,2" d="M436.044,-324C436.044,-324 331.544,-324 331.544,-324 325.544,-324 319.544,-318 319.544,-312 319.544,-312 319.544,-300 319.544,-300 319.544,-294 325.544,-288 331.544,-288 331.544,-288 436.044,-288 436.044,-288 442.044,-288 448.044,-294 448.044,-300 448.044,-300 448.044,-312 448.044,-312 448.044,-318 442.044,-324 436.044,-324"/>
<text text-anchor="middle" x="383.794" y="-303.5" font-family="sans" font-size="10.00">scSplit_allele_matrices</text>
</g>
<!-- 14&#45;&gt;9 -->
<g id="edge15" class="edge"><title>14&#45;&gt;9</title>
<path fill="none" stroke="grey" stroke-width="2" d="M383.794,-287.697C383.794,-279.983 383.794,-270.712 383.794,-262.112"/>
<polygon fill="grey" stroke="grey" points="387.294,-262.104 383.794,-252.104 380.294,-262.104 387.294,-262.104"/>
</g>
<!-- 15 -->
<g id="node16" class="node"><title>15</title>
<path fill="none" stroke="#d8ac56" stroke-width="2" stroke-dasharray="5,2" d="M745.044,-396C745.044,-396 602.544,-396 602.544,-396 596.544,-396 590.544,-390 590.544,-384 590.544,-384 590.544,-372 590.544,-372 590.544,-366 596.544,-360 602.544,-360 602.544,-360 745.044,-360 745.044,-360 751.044,-360 757.044,-366 757.044,-372 757.044,-372 757.044,-384 757.044,-384 757.044,-390 751.044,-396 745.044,-396"/>
<text text-anchor="middle" x="673.794" y="-381" font-family="sans" font-size="10.00">cellSNP</text>
<text text-anchor="middle" x="673.794" y="-370" font-family="sans" font-size="10.00">pool: OneK1K_scRNA_Sample1</text>
</g>
<!-- 15&#45;&gt;11 -->
<g id="edge16" class="edge"><title>15&#45;&gt;11</title>
<path fill="none" stroke="grey" stroke-width="2" d="M668.925,-359.979C666.23,-349.665 663.157,-336.189 661.794,-324 660.017,-308.099 659.875,-303.884 661.794,-288 662.817,-279.535 664.728,-270.471 666.775,-262.276"/>
<polygon fill="grey" stroke="grey" points="670.195,-263.034 669.385,-252.471 663.431,-261.234 670.195,-263.034"/>
</g>
<!-- 16 -->
<g id="node17" class="node"><title>16</title>
<path fill="none" stroke="#56d85b" stroke-width="2" stroke-dasharray="5,2" d="M728.044,-324C728.044,-324 683.544,-324 683.544,-324 677.544,-324 671.544,-318 671.544,-312 671.544,-312 671.544,-300 671.544,-300 671.544,-294 677.544,-288 683.544,-288 683.544,-288 728.044,-288 728.044,-288 734.044,-288 740.044,-294 740.044,-300 740.044,-300 740.044,-312 740.044,-312 740.044,-318 734.044,-324 728.044,-324"/>
<text text-anchor="middle" x="705.794" y="-303.5" font-family="sans" font-size="10.00">subset_vcf</text>
</g>
<!-- 15&#45;&gt;16 -->
<g id="edge21" class="edge"><title>15&#45;&gt;16</title>
<path fill="none" stroke="grey" stroke-width="2" d="M681.704,-359.697C685.347,-351.728 689.749,-342.1 693.788,-333.264"/>
<polygon fill="grey" stroke="grey" points="697.001,-334.654 697.975,-324.104 690.634,-331.744 697.001,-334.654"/>
</g>
<!-- 16&#45;&gt;11 -->
<g id="edge17" class="edge"><title>16&#45;&gt;11</title>
<path fill="none" stroke="grey" stroke-width="2" d="M698.131,-287.697C694.603,-279.728 690.338,-270.1 686.426,-261.264"/>
<polygon fill="grey" stroke="grey" points="689.619,-259.831 682.369,-252.104 683.218,-262.665 689.619,-259.831"/>
</g>
<!-- 17 -->
<g id="node18" class="node"><title>17</title>
<path fill="none" stroke="#56d892" stroke-width="2" stroke-dasharray="5,2" d="M466.044,-396C466.044,-396 383.544,-396 383.544,-396 377.544,-396 371.544,-390 371.544,-384 371.544,-384 371.544,-372 371.544,-372 371.544,-366 377.544,-360 383.544,-360 383.544,-360 466.044,-360 466.044,-360 472.044,-360 478.044,-366 478.044,-372 478.044,-372 478.044,-384 478.044,-384 478.044,-390 472.044,-396 466.044,-396"/>
<text text-anchor="middle" x="424.794" y="-375.5" font-family="sans" font-size="10.00">scSplit_subset_vcf</text>
</g>
<!-- 17&#45;&gt;14 -->
<g id="edge19" class="edge"><title>17&#45;&gt;14</title>
<path fill="none" stroke="grey" stroke-width="2" d="M414.659,-359.697C409.943,-351.644 404.232,-341.894 399.013,-332.982"/>
<polygon fill="grey" stroke="grey" points="401.887,-330.964 393.813,-324.104 395.847,-334.502 401.887,-330.964"/>
</g>
<!-- 18 -->
<g id="node19" class="node"><title>18</title>
<path fill="none" stroke="#d8d356" stroke-width="2" stroke-dasharray="5,2" d="M404.044,-756C404.044,-756 355.544,-756 355.544,-756 349.544,-756 343.544,-750 343.544,-744 343.544,-744 343.544,-732 343.544,-732 343.544,-726 349.544,-720 355.544,-720 355.544,-720 404.044,-720 404.044,-720 410.044,-720 416.044,-726 416.044,-732 416.044,-732 416.044,-744 416.044,-744 416.044,-750 410.044,-756 404.044,-756"/>
<text text-anchor="middle" x="379.794" y="-735.5" font-family="sans" font-size="10.00">scSplit_sort</text>
</g>
<!-- 18&#45;&gt;14 -->
<g id="edge20" class="edge"><title>18&#45;&gt;14</title>
<path fill="none" stroke="grey" stroke-width="2" d="M372.104,-719.907C361.001,-693.623 341.794,-641.447 341.794,-595 341.794,-595 341.794,-595 341.794,-449 341.794,-407.145 358.781,-361.096 371.148,-333.114"/>
<polygon fill="grey" stroke="grey" points="374.337,-334.558 375.295,-324.007 367.966,-331.658 374.337,-334.558"/>
</g>
<!-- 23 -->
<g id="node24" class="node"><title>23</title>
<path fill="none" stroke="#d89c56" stroke-width="2" stroke-dasharray="5,2" d="M466.044,-612C466.044,-612 387.544,-612 387.544,-612 381.544,-612 375.544,-606 375.544,-600 375.544,-600 375.544,-588 375.544,-588 375.544,-582 381.544,-576 387.544,-576 387.544,-576 466.044,-576 466.044,-576 472.044,-576 478.044,-582 478.044,-588 478.044,-588 478.044,-600 478.044,-600 478.044,-606 472.044,-612 466.044,-612"/>
<text text-anchor="middle" x="426.794" y="-591.5" font-family="sans" font-size="10.00">scSplit_freebayes</text>
</g>
<!-- 18&#45;&gt;23 -->
<g id="edge29" class="edge"><title>18&#45;&gt;23</title>
<path fill="none" stroke="grey" stroke-width="2" d="M382.016,-719.881C384.707,-701.67 390.008,-672.208 398.794,-648 402.096,-638.903 406.694,-629.421 411.211,-621.034"/>
<polygon fill="grey" stroke="grey" points="414.376,-622.545 416.203,-612.109 408.267,-619.128 414.376,-622.545"/>
</g>
<!-- 26 -->
<g id="node27" class="node"><title>26</title>
<path fill="none" stroke="#56d882" stroke-width="2" stroke-dasharray="5,2" d="M485.794,-684C485.794,-684 419.794,-684 419.794,-684 413.794,-684 407.794,-678 407.794,-672 407.794,-672 407.794,-660 407.794,-660 407.794,-654 413.794,-648 419.794,-648 419.794,-648 485.794,-648 485.794,-648 491.794,-648 497.794,-654 497.794,-660 497.794,-660 497.794,-672 497.794,-672 497.794,-678 491.794,-684 485.794,-684"/>
<text text-anchor="middle" x="452.794" y="-663.5" font-family="sans" font-size="10.00">scSplit_regions</text>
</g>
<!-- 18&#45;&gt;26 -->
<g id="edge31" class="edge"><title>18&#45;&gt;26</title>
<path fill="none" stroke="grey" stroke-width="2" d="M397.839,-719.697C406.856,-711.05 417.912,-700.449 427.738,-691.027"/>
<polygon fill="grey" stroke="grey" points="430.161,-693.552 434.957,-684.104 425.317,-688.499 430.161,-693.552"/>
</g>
<!-- 19 -->
<g id="node20" class="node"><title>19</title>
<path fill="none" stroke="#56c1d8" stroke-width="2" stroke-dasharray="5,2" d="M453.794,-468C453.794,-468 397.794,-468 397.794,-468 391.794,-468 385.794,-462 385.794,-456 385.794,-456 385.794,-444 385.794,-444 385.794,-438 391.794,-432 397.794,-432 397.794,-432 453.794,-432 453.794,-432 459.794,-432 465.794,-438 465.794,-444 465.794,-444 465.794,-456 465.794,-456 465.794,-462 459.794,-468 453.794,-468"/>
<text text-anchor="middle" x="425.794" y="-447.5" font-family="sans" font-size="10.00">scSplit_bgzip</text>
</g>
<!-- 19&#45;&gt;17 -->
<g id="edge22" class="edge"><title>19&#45;&gt;17</title>
<path fill="none" stroke="grey" stroke-width="2" d="M425.547,-431.697C425.437,-423.983 425.304,-414.712 425.182,-406.112"/>
<polygon fill="grey" stroke="grey" points="428.681,-406.053 425.039,-396.104 421.682,-406.153 428.681,-406.053"/>
</g>
<!-- 20 -->
<g id="node21" class="node"><title>20</title>
<path fill="none" stroke="#568ad8" stroke-width="2" stroke-dasharray="5,2" d="M413.794,-828C413.794,-828 345.794,-828 345.794,-828 339.794,-828 333.794,-822 333.794,-816 333.794,-816 333.794,-804 333.794,-804 333.794,-798 339.794,-792 345.794,-792 345.794,-792 413.794,-792 413.794,-792 419.794,-792 425.794,-798 425.794,-804 425.794,-804 425.794,-816 425.794,-816 425.794,-822 419.794,-828 413.794,-828"/>
<text text-anchor="middle" x="379.794" y="-807.5" font-family="sans" font-size="10.00">scSplit_rmdupe</text>
</g>
<!-- 20&#45;&gt;18 -->
<g id="edge23" class="edge"><title>20&#45;&gt;18</title>
<path fill="none" stroke="grey" stroke-width="2" d="M379.794,-791.697C379.794,-783.983 379.794,-774.712 379.794,-766.112"/>
<polygon fill="grey" stroke="grey" points="383.294,-766.104 379.794,-756.104 376.294,-766.104 383.294,-766.104"/>
</g>
<!-- 21 -->
<g id="node22" class="node"><title>21</title>
<path fill="none" stroke="#d88d56" stroke-width="2" stroke-dasharray="5,2" d="M471.044,-540C471.044,-540 382.544,-540 382.544,-540 376.544,-540 370.544,-534 370.544,-528 370.544,-528 370.544,-516 370.544,-516 370.544,-510 376.544,-504 382.544,-504 382.544,-504 471.044,-504 471.044,-504 477.044,-504 483.044,-510 483.044,-516 483.044,-516 483.044,-528 483.044,-528 483.044,-534 477.044,-540 471.044,-540"/>
<text text-anchor="middle" x="426.794" y="-519.5" font-family="sans" font-size="10.00">scSplit_vcf_qual_filt</text>
</g>
<!-- 21&#45;&gt;19 -->
<g id="edge24" class="edge"><title>21&#45;&gt;19</title>
<path fill="none" stroke="grey" stroke-width="2" d="M426.547,-503.697C426.437,-495.983 426.304,-486.712 426.182,-478.112"/>
<polygon fill="grey" stroke="grey" points="429.681,-478.053 426.039,-468.104 422.682,-478.153 429.681,-478.053"/>
</g>
<!-- 22 -->
<g id="node23" class="node"><title>22</title>
<path fill="none" stroke="#97d856" stroke-width="2" stroke-dasharray="5,2" d="M428.794,-900C428.794,-900 330.794,-900 330.794,-900 324.794,-900 318.794,-894 318.794,-888 318.794,-888 318.794,-876 318.794,-876 318.794,-870 324.794,-864 330.794,-864 330.794,-864 428.794,-864 428.794,-864 434.794,-864 440.794,-870 440.794,-876 440.794,-876 440.794,-888 440.794,-888 440.794,-894 434.794,-900 428.794,-900"/>
<text text-anchor="middle" x="379.794" y="-879.5" font-family="sans" font-size="10.00">scSplit_sam_combine</text>
</g>
<!-- 22&#45;&gt;20 -->
<g id="edge25" class="edge"><title>22&#45;&gt;20</title>
<path fill="none" stroke="grey" stroke-width="2" d="M379.794,-863.697C379.794,-855.983 379.794,-846.712 379.794,-838.112"/>
<polygon fill="grey" stroke="grey" points="383.294,-838.104 379.794,-828.104 376.294,-838.104 383.294,-838.104"/>
</g>
<!-- 23&#45;&gt;21 -->
<g id="edge26" class="edge"><title>23&#45;&gt;21</title>
<path fill="none" stroke="grey" stroke-width="2" d="M426.794,-575.697C426.794,-567.983 426.794,-558.712 426.794,-550.112"/>
<polygon fill="grey" stroke="grey" points="430.294,-550.104 426.794,-540.104 423.294,-550.104 430.294,-550.104"/>
</g>
<!-- 24 -->
<g id="node25" class="node"><title>24</title>
<path fill="none" stroke="#a7d856" stroke-width="2" stroke-dasharray="5,2" d="M359.044,-972C359.044,-972 216.544,-972 216.544,-972 210.544,-972 204.544,-966 204.544,-960 204.544,-960 204.544,-948 204.544,-948 204.544,-942 210.544,-936 216.544,-936 216.544,-936 359.044,-936 359.044,-936 365.044,-936 371.044,-942 371.044,-948 371.044,-948 371.044,-960 371.044,-960 371.044,-966 365.044,-972 359.044,-972"/>
<text text-anchor="middle" x="287.794" y="-957" font-family="sans" font-size="10.00">scSplit_sam_header</text>
<text text-anchor="middle" x="287.794" y="-946" font-family="sans" font-size="10.00">pool: OneK1K_scRNA_Sample1</text>
</g>
<!-- 24&#45;&gt;22 -->
<g id="edge27" class="edge"><title>24&#45;&gt;22</title>
<path fill="none" stroke="grey" stroke-width="2" d="M310.536,-935.697C322.234,-926.796 336.655,-915.823 349.304,-906.199"/>
<polygon fill="grey" stroke="grey" points="351.475,-908.945 357.314,-900.104 347.237,-903.374 351.475,-908.945"/>
</g>
<!-- 25 -->
<g id="node26" class="node"><title>25</title>
<path fill="none" stroke="#d87d56" stroke-width="2" stroke-dasharray="5,2" d="M544.044,-972C544.044,-972 401.544,-972 401.544,-972 395.544,-972 389.544,-966 389.544,-960 389.544,-960 389.544,-948 389.544,-948 389.544,-942 395.544,-936 401.544,-936 401.544,-936 544.044,-936 544.044,-936 550.044,-936 556.044,-942 556.044,-948 556.044,-948 556.044,-960 556.044,-960 556.044,-966 550.044,-972 544.044,-972"/>
<text text-anchor="middle" x="472.794" y="-957" font-family="sans" font-size="10.00">scSplit_sam_body</text>
<text text-anchor="middle" x="472.794" y="-946" font-family="sans" font-size="10.00">pool: OneK1K_scRNA_Sample1</text>
</g>
<!-- 25&#45;&gt;22 -->
<g id="edge28" class="edge"><title>25&#45;&gt;22</title>
<path fill="none" stroke="grey" stroke-width="2" d="M449.806,-935.697C437.98,-926.796 423.402,-915.823 410.616,-906.199"/>
<polygon fill="grey" stroke="grey" points="412.613,-903.322 402.519,-900.104 408.403,-908.915 412.613,-903.322"/>
</g>
<!-- 26&#45;&gt;23 -->
<g id="edge30" class="edge"><title>26&#45;&gt;23</title>
<path fill="none" stroke="grey" stroke-width="2" d="M446.367,-647.697C443.439,-639.813 439.907,-630.304 436.654,-621.546"/>
<polygon fill="grey" stroke="grey" points="439.91,-620.26 433.147,-612.104 433.348,-622.697 439.91,-620.26"/>
</g>
</g>
</svg>
