<?xml version="1.0" encoding="UTF-8" standalone="no"?>
<!DOCTYPE svg PUBLIC "-//W3C//DTD SVG 1.1//EN"
 "http://www.w3.org/Graphics/SVG/1.1/DTD/svg11.dtd">
<!-- Generated by graphviz version 2.30.1 (20180420.1509)
 -->
<!-- Title: snakemake_dag Pages: 1 -->
<svg width="873pt" height="476pt"
 viewBox="0.00 0.00 873.00 476.00" xmlns="http://www.w3.org/2000/svg" xmlns:xlink="http://www.w3.org/1999/xlink">
<g id="graph0" class="graph" transform="scale(1 1) rotate(0) translate(4 472)">
<title>snakemake_dag</title>
<polygon fill="white" stroke="white" points="-4,5 -4,-472 870,-472 870,5 -4,5"/>
<!-- 0 -->
<g id="node1" class="node"><title>0</title>
<path fill="none" stroke="#d88d56" stroke-width="2" d="M510,-36C510,-36 480,-36 480,-36 474,-36 468,-30 468,-24 468,-24 468,-12 468,-12 468,-6 474,-0 480,-0 480,-0 510,-0 510,-0 516,-0 522,-6 522,-12 522,-12 522,-24 522,-24 522,-30 516,-36 510,-36"/>
<text text-anchor="middle" x="495" y="-15.5" font-family="sans" font-size="10.00">all</text>
</g>
<!-- 1 -->
<g id="node2" class="node"><title>1</title>
<path fill="none" stroke="#56d863" stroke-width="2" d="M225,-108C225,-108 143,-108 143,-108 137,-108 131,-102 131,-96 131,-96 131,-84 131,-84 131,-78 137,-72 143,-72 143,-72 225,-72 225,-72 231,-72 237,-78 237,-84 237,-84 237,-96 237,-96 237,-102 231,-108 225,-108"/>
<text text-anchor="middle" x="184" y="-87.5" font-family="sans" font-size="10.00">popscle_demuxlet</text>
</g>
<!-- 1&#45;&gt;0 -->
<g id="edge1" class="edge"><title>1&#45;&gt;0</title>
<path fill="none" stroke="grey" stroke-width="2" d="M237.047,-74.2376C240.072,-73.4637 243.072,-72.7124 246,-72 320.817,-53.7966 409.122,-35.8235 457.906,-26.1978"/>
<polygon fill="grey" stroke="grey" points="458.849,-29.5797 467.986,-24.217 457.499,-22.711 458.849,-29.5797"/>
</g>
<!-- 2 -->
<g id="node3" class="node"><title>2</title>
<path fill="none" stroke="#568ad8" stroke-width="2" d="M100.25,-108C100.25,-108 11.75,-108 11.75,-108 5.75,-108 -0.25,-102 -0.25,-96 -0.25,-96 -0.25,-84 -0.25,-84 -0.25,-78 5.75,-72 11.75,-72 11.75,-72 100.25,-72 100.25,-72 106.25,-72 112.25,-78 112.25,-84 112.25,-84 112.25,-96 112.25,-96 112.25,-102 106.25,-108 100.25,-108"/>
<text text-anchor="middle" x="56" y="-87.5" font-family="sans" font-size="10.00">popscle_freemuxlet</text>
</g>
<!-- 2&#45;&gt;0 -->
<g id="edge2" class="edge"><title>2&#45;&gt;0</title>
<path fill="none" stroke="grey" stroke-width="2" d="M112.431,-74.0256C115.66,-73.3057 118.867,-72.6241 122,-72 243.779,-47.7422 390.068,-30.3158 457.543,-22.9291"/>
<polygon fill="grey" stroke="grey" points="458.116,-26.3876 467.68,-21.8302 457.361,-19.4284 458.116,-26.3876"/>
</g>
<!-- 3 -->
<g id="node4" class="node"><title>3</title>
<path fill="none" stroke="#56d8d0" stroke-width="2" d="M410.25,-108C410.25,-108 267.75,-108 267.75,-108 261.75,-108 255.75,-102 255.75,-96 255.75,-96 255.75,-84 255.75,-84 255.75,-78 261.75,-72 267.75,-72 267.75,-72 410.25,-72 410.25,-72 416.25,-72 422.25,-78 422.25,-84 422.25,-84 422.25,-96 422.25,-96 422.25,-102 416.25,-108 410.25,-108"/>
<text text-anchor="middle" x="339" y="-93" font-family="sans" font-size="10.00">souporcell</text>
<text text-anchor="middle" x="339" y="-82" font-family="sans" font-size="10.00">pool: OneK1K_scRNA_Sample1</text>
</g>
<!-- 3&#45;&gt;0 -->
<g id="edge3" class="edge"><title>3&#45;&gt;0</title>
<path fill="none" stroke="grey" stroke-width="2" d="M377.162,-71.8761C402.007,-60.7276 434.224,-46.2715 458.69,-35.2929"/>
<polygon fill="grey" stroke="grey" points="460.298,-38.4079 467.988,-31.1206 457.432,-32.0214 460.298,-38.4079"/>
</g>
<!-- 4 -->
<g id="node5" class="node"><title>4</title>
<path fill="none" stroke="#56d8b9" stroke-width="2" d="M483,-108C483,-108 453,-108 453,-108 447,-108 441,-102 441,-96 441,-96 441,-84 441,-84 441,-78 447,-72 453,-72 453,-72 483,-72 483,-72 489,-72 495,-78 495,-84 495,-84 495,-96 495,-96 495,-102 489,-108 483,-108"/>
<text text-anchor="middle" x="468" y="-87.5" font-family="sans" font-size="10.00">vireo</text>
</g>
<!-- 4&#45;&gt;0 -->
<g id="edge4" class="edge"><title>4&#45;&gt;0</title>
<path fill="none" stroke="grey" stroke-width="2" d="M474.674,-71.6966C477.715,-63.8132 481.383,-54.3042 484.761,-45.5464"/>
<polygon fill="grey" stroke="grey" points="488.069,-46.6939 488.403,-36.1043 481.538,-44.1748 488.069,-46.6939"/>
</g>
<!-- 5 -->
<g id="node6" class="node"><title>5</title>
<path fill="none" stroke="#80d856" stroke-width="2" d="M520.25,-180C520.25,-180 463.75,-180 463.75,-180 457.75,-180 451.75,-174 451.75,-168 451.75,-168 451.75,-156 451.75,-156 451.75,-150 457.75,-144 463.75,-144 463.75,-144 520.25,-144 520.25,-144 526.25,-144 532.25,-150 532.25,-156 532.25,-156 532.25,-168 532.25,-168 532.25,-174 526.25,-180 520.25,-180"/>
<text text-anchor="middle" x="492" y="-159.5" font-family="sans" font-size="10.00">scSplit_index</text>
</g>
<!-- 5&#45;&gt;0 -->
<g id="edge5" class="edge"><title>5&#45;&gt;0</title>
<path fill="none" stroke="grey" stroke-width="2" d="M496.869,-143.979C499.564,-133.665 502.637,-120.189 504,-108 506.315,-87.2943 503.732,-63.8484 500.749,-46.2206"/>
<polygon fill="grey" stroke="grey" points="504.133,-45.2739 498.88,-36.0733 497.249,-46.5418 504.133,-45.2739"/>
</g>
<!-- 6 -->
<g id="node7" class="node"><title>6</title>
<path fill="none" stroke="#d8ac56" stroke-width="2" d="M852.25,-180C852.25,-180 747.75,-180 747.75,-180 741.75,-180 735.75,-174 735.75,-168 735.75,-168 735.75,-156 735.75,-156 735.75,-150 741.75,-144 747.75,-144 747.75,-144 852.25,-144 852.25,-144 858.25,-144 864.25,-150 864.25,-156 864.25,-156 864.25,-168 864.25,-168 864.25,-174 858.25,-180 852.25,-180"/>
<text text-anchor="middle" x="800" y="-159.5" font-family="sans" font-size="10.00">scSplit_allele_matrices</text>
</g>
<!-- 6&#45;&gt;0 -->
<g id="edge6" class="edge"><title>6&#45;&gt;0</title>
<path fill="none" stroke="grey" stroke-width="2" d="M777.992,-143.945C765.011,-133.733 748.364,-120.371 734,-108 716.126,-92.6059 715.676,-83.3554 695,-72 642.61,-43.227 573.828,-29.4664 532.098,-23.3587"/>
<polygon fill="grey" stroke="grey" points="532.485,-19.8789 522.097,-21.9663 531.519,-26.8121 532.485,-19.8789"/>
</g>
<!-- 7 -->
<g id="node8" class="node"><title>7</title>
<path fill="none" stroke="#56d89a" stroke-width="2" d="M844.25,-108C844.25,-108 755.75,-108 755.75,-108 749.75,-108 743.75,-102 743.75,-96 743.75,-96 743.75,-84 743.75,-84 743.75,-78 749.75,-72 755.75,-72 755.75,-72 844.25,-72 844.25,-72 850.25,-72 856.25,-78 856.25,-84 856.25,-84 856.25,-96 856.25,-96 856.25,-102 850.25,-108 844.25,-108"/>
<text text-anchor="middle" x="800" y="-87.5" font-family="sans" font-size="10.00">scSplit_demultiplex</text>
</g>
<!-- 6&#45;&gt;7 -->
<g id="edge16" class="edge"><title>6&#45;&gt;7</title>
<path fill="none" stroke="grey" stroke-width="2" d="M800,-143.697C800,-135.983 800,-126.712 800,-118.112"/>
<polygon fill="grey" stroke="grey" points="803.5,-118.104 800,-108.104 796.5,-118.104 803.5,-118.104"/>
</g>
<!-- 8 -->
<g id="node9" class="node"><title>8</title>
<path fill="none" stroke="#b6d856" stroke-width="2" d="M674.25,-108C674.25,-108 593.75,-108 593.75,-108 587.75,-108 581.75,-102 581.75,-96 581.75,-96 581.75,-84 581.75,-84 581.75,-78 587.75,-72 593.75,-72 593.75,-72 674.25,-72 674.25,-72 680.25,-72 686.25,-78 686.25,-84 686.25,-84 686.25,-96 686.25,-96 686.25,-102 680.25,-108 674.25,-108"/>
<text text-anchor="middle" x="634" y="-87.5" font-family="sans" font-size="10.00">scSplit_genotypes</text>
</g>
<!-- 6&#45;&gt;8 -->
<g id="edge17" class="edge"><title>6&#45;&gt;8</title>
<path fill="none" stroke="grey" stroke-width="2" d="M759.392,-143.876C736.598,-134.264 707.973,-122.193 683.83,-112.013"/>
<polygon fill="grey" stroke="grey" points="685.051,-108.729 674.476,-108.068 682.331,-115.179 685.051,-108.729"/>
</g>
<!-- 7&#45;&gt;0 -->
<g id="edge7" class="edge"><title>7&#45;&gt;0</title>
<path fill="none" stroke="grey" stroke-width="2" d="M743.434,-75.3898C738.553,-74.2357 733.691,-73.0928 729,-72 659.415,-55.7897 578.026,-37.5084 531.891,-27.2088"/>
<polygon fill="grey" stroke="grey" points="532.571,-23.7745 522.049,-25.0132 531.047,-30.6065 532.571,-23.7745"/>
</g>
<!-- 8&#45;&gt;0 -->
<g id="edge8" class="edge"><title>8&#45;&gt;0</title>
<path fill="none" stroke="grey" stroke-width="2" d="M599.997,-71.8761C579.133,-61.3692 552.436,-47.9245 531.183,-37.2217"/>
<polygon fill="grey" stroke="grey" points="532.648,-34.0406 522.142,-32.6687 529.499,-40.2926 532.648,-34.0406"/>
</g>
<!-- 9 -->
<g id="node10" class="node"><title>9</title>
<path fill="none" stroke="#56c1d8" stroke-width="2" d="M165.25,-252C165.25,-252 22.75,-252 22.75,-252 16.75,-252 10.75,-246 10.75,-240 10.75,-240 10.75,-228 10.75,-228 10.75,-222 16.75,-216 22.75,-216 22.75,-216 165.25,-216 165.25,-216 171.25,-216 177.25,-222 177.25,-228 177.25,-228 177.25,-240 177.25,-240 177.25,-246 171.25,-252 165.25,-252"/>
<text text-anchor="middle" x="94" y="-237" font-family="sans" font-size="10.00">popscle_pileup</text>
<text text-anchor="middle" x="94" y="-226" font-family="sans" font-size="10.00">pool: OneK1K_scRNA_Sample1</text>
</g>
<!-- 9&#45;&gt;1 -->
<g id="edge9" class="edge"><title>9&#45;&gt;1</title>
<path fill="none" stroke="grey" stroke-width="2" d="M94.1465,-215.922C95.0606,-196.948 98.8483,-166.082 113,-144 120.54,-132.235 131.669,-122.146 142.891,-114.025"/>
<polygon fill="grey" stroke="grey" points="145.141,-116.727 151.433,-108.203 141.198,-110.943 145.141,-116.727"/>
</g>
<!-- 9&#45;&gt;2 -->
<g id="edge11" class="edge"><title>9&#45;&gt;2</title>
<path fill="none" stroke="grey" stroke-width="2" d="M89.4163,-215.871C82.9114,-191.564 70.9374,-146.819 63.2289,-118.013"/>
<polygon fill="grey" stroke="grey" points="66.5661,-116.945 60.5999,-108.189 59.8041,-118.754 66.5661,-116.945"/>
</g>
<!-- 10 -->
<g id="node11" class="node"><title>10</title>
<path fill="none" stroke="#61d856" stroke-width="2" d="M262,-180C262,-180 134,-180 134,-180 128,-180 122,-174 122,-168 122,-168 122,-156 122,-156 122,-150 128,-144 134,-144 134,-144 262,-144 262,-144 268,-144 274,-150 274,-156 274,-156 274,-168 274,-168 274,-174 268,-180 262,-180"/>
<text text-anchor="middle" x="198" y="-159.5" font-family="sans" font-size="10.00">popscle_demuxlet_ind_files</text>
</g>
<!-- 9&#45;&gt;10 -->
<g id="edge19" class="edge"><title>9&#45;&gt;10</title>
<path fill="none" stroke="grey" stroke-width="2" d="M119.441,-215.876C132.787,-206.893 149.324,-195.763 163.778,-186.034"/>
<polygon fill="grey" stroke="grey" points="166.119,-188.677 172.461,-180.19 162.211,-182.87 166.119,-188.677"/>
</g>
<!-- 10&#45;&gt;1 -->
<g id="edge10" class="edge"><title>10&#45;&gt;1</title>
<path fill="none" stroke="grey" stroke-width="2" d="M194.539,-143.697C192.997,-135.983 191.142,-126.712 189.422,-118.112"/>
<polygon fill="grey" stroke="grey" points="192.814,-117.224 187.421,-108.104 185.95,-118.597 192.814,-117.224"/>
</g>
<!-- 11 -->
<g id="node12" class="node"><title>11</title>
<path fill="none" stroke="#56d882" stroke-width="2" d="M416.25,-252C416.25,-252 273.75,-252 273.75,-252 267.75,-252 261.75,-246 261.75,-240 261.75,-240 261.75,-228 261.75,-228 261.75,-222 267.75,-216 273.75,-216 273.75,-216 416.25,-216 416.25,-216 422.25,-216 428.25,-222 428.25,-228 428.25,-228 428.25,-240 428.25,-240 428.25,-246 422.25,-252 416.25,-252"/>
<text text-anchor="middle" x="345" y="-237" font-family="sans" font-size="10.00">cellSNP</text>
<text text-anchor="middle" x="345" y="-226" font-family="sans" font-size="10.00">pool: OneK1K_scRNA_Sample1</text>
</g>
<!-- 11&#45;&gt;4 -->
<g id="edge12" class="edge"><title>11&#45;&gt;4</title>
<path fill="none" stroke="grey" stroke-width="2" d="M342.299,-215.86C340.224,-196.547 339.869,-165.102 355,-144 355.625,-143.128 398.721,-123.053 431.502,-107.866"/>
<polygon fill="grey" stroke="grey" points="433.253,-110.912 440.857,-103.535 430.312,-104.56 433.253,-110.912"/>
</g>
<!-- 12 -->
<g id="node13" class="node"><title>12</title>
<path fill="none" stroke="#d8c356" stroke-width="2" d="M421.25,-180C421.25,-180 376.75,-180 376.75,-180 370.75,-180 364.75,-174 364.75,-168 364.75,-168 364.75,-156 364.75,-156 364.75,-150 370.75,-144 376.75,-144 376.75,-144 421.25,-144 421.25,-144 427.25,-144 433.25,-150 433.25,-156 433.25,-156 433.25,-168 433.25,-168 433.25,-174 427.25,-180 421.25,-180"/>
<text text-anchor="middle" x="399" y="-159.5" font-family="sans" font-size="10.00">subset_vcf</text>
</g>
<!-- 11&#45;&gt;12 -->
<g id="edge20" class="edge"><title>11&#45;&gt;12</title>
<path fill="none" stroke="grey" stroke-width="2" d="M358.348,-215.697C364.757,-207.389 372.558,-197.277 379.606,-188.141"/>
<polygon fill="grey" stroke="grey" points="382.468,-190.16 385.805,-180.104 376.926,-185.884 382.468,-190.16"/>
</g>
<!-- 12&#45;&gt;4 -->
<g id="edge13" class="edge"><title>12&#45;&gt;4</title>
<path fill="none" stroke="grey" stroke-width="2" d="M416.056,-143.697C424.495,-135.135 434.825,-124.656 444.043,-115.304"/>
<polygon fill="grey" stroke="grey" points="446.613,-117.683 451.14,-108.104 441.627,-112.769 446.613,-117.683"/>
</g>
<!-- 13 -->
<g id="node14" class="node"><title>13</title>
<path fill="none" stroke="#97d856" stroke-width="2" d="M670.25,-252C670.25,-252 621.75,-252 621.75,-252 615.75,-252 609.75,-246 609.75,-240 609.75,-240 609.75,-228 609.75,-228 609.75,-222 615.75,-216 621.75,-216 621.75,-216 670.25,-216 670.25,-216 676.25,-216 682.25,-222 682.25,-228 682.25,-228 682.25,-240 682.25,-240 682.25,-246 676.25,-252 670.25,-252"/>
<text text-anchor="middle" x="646" y="-231.5" font-family="sans" font-size="10.00">scSplit_sort</text>
</g>
<!-- 13&#45;&gt;5 -->
<g id="edge14" class="edge"><title>13&#45;&gt;5</title>
<path fill="none" stroke="grey" stroke-width="2" d="M609.504,-216.411C588.319,-206.781 561.415,-194.552 538.698,-184.226"/>
<polygon fill="grey" stroke="grey" points="540.125,-181.03 529.573,-180.078 537.228,-187.403 540.125,-181.03"/>
</g>
<!-- 13&#45;&gt;6 -->
<g id="edge15" class="edge"><title>13&#45;&gt;6</title>
<path fill="none" stroke="grey" stroke-width="2" d="M682.496,-216.411C703.681,-206.781 730.585,-194.552 753.302,-184.226"/>
<polygon fill="grey" stroke="grey" points="754.772,-187.403 762.427,-180.078 751.875,-181.03 754.772,-187.403"/>
</g>
<!-- 14 -->
<g id="node15" class="node"><title>14</title>
<path fill="none" stroke="#56a9d8" stroke-width="2" d="M705.25,-180C705.25,-180 562.75,-180 562.75,-180 556.75,-180 550.75,-174 550.75,-168 550.75,-168 550.75,-156 550.75,-156 550.75,-150 556.75,-144 562.75,-144 562.75,-144 705.25,-144 705.25,-144 711.25,-144 717.25,-150 717.25,-156 717.25,-156 717.25,-168 717.25,-168 717.25,-174 711.25,-180 705.25,-180"/>
<text text-anchor="middle" x="634" y="-165" font-family="sans" font-size="10.00">check_result</text>
<text text-anchor="middle" x="634" y="-154" font-family="sans" font-size="10.00">pool: OneK1K_scRNA_Sample1</text>
</g>
<!-- 14&#45;&gt;8 -->
<g id="edge18" class="edge"><title>14&#45;&gt;8</title>
<path fill="none" stroke="grey" stroke-width="2" d="M634,-143.697C634,-135.983 634,-126.712 634,-118.112"/>
<polygon fill="grey" stroke="grey" points="637.5,-118.104 634,-108.104 630.5,-118.104 637.5,-118.104"/>
</g>
<!-- 15 -->
<g id="node16" class="node"><title>15</title>
<path fill="none" stroke="#5673d8" stroke-width="2" d="M680,-324C680,-324 612,-324 612,-324 606,-324 600,-318 600,-312 600,-312 600,-300 600,-300 600,-294 606,-288 612,-288 612,-288 680,-288 680,-288 686,-288 692,-294 692,-300 692,-300 692,-312 692,-312 692,-318 686,-324 680,-324"/>
<text text-anchor="middle" x="646" y="-303.5" font-family="sans" font-size="10.00">scSplit_rmdupe</text>
</g>
<!-- 15&#45;&gt;13 -->
<g id="edge21" class="edge"><title>15&#45;&gt;13</title>
<path fill="none" stroke="grey" stroke-width="2" d="M646,-287.697C646,-279.983 646,-270.712 646,-262.112"/>
<polygon fill="grey" stroke="grey" points="649.5,-262.104 646,-252.104 642.5,-262.104 649.5,-262.104"/>
</g>
<!-- 16 -->
<g id="node17" class="node"><title>16</title>
<path fill="none" stroke="#ced856" stroke-width="2" d="M695,-396C695,-396 597,-396 597,-396 591,-396 585,-390 585,-384 585,-384 585,-372 585,-372 585,-366 591,-360 597,-360 597,-360 695,-360 695,-360 701,-360 707,-366 707,-372 707,-372 707,-384 707,-384 707,-390 701,-396 695,-396"/>
<text text-anchor="middle" x="646" y="-375.5" font-family="sans" font-size="10.00">scSplit_sam_combine</text>
</g>
<!-- 16&#45;&gt;15 -->
<g id="edge22" class="edge"><title>16&#45;&gt;15</title>
<path fill="none" stroke="grey" stroke-width="2" d="M646,-359.697C646,-351.983 646,-342.712 646,-334.112"/>
<polygon fill="grey" stroke="grey" points="649.5,-334.104 646,-324.104 642.5,-334.104 649.5,-334.104"/>
</g>
<!-- 17 -->
<g id="node18" class="node"><title>17</title>
<path fill="none" stroke="#d85656" stroke-width="2" d="M625.25,-468C625.25,-468 482.75,-468 482.75,-468 476.75,-468 470.75,-462 470.75,-456 470.75,-456 470.75,-444 470.75,-444 470.75,-438 476.75,-432 482.75,-432 482.75,-432 625.25,-432 625.25,-432 631.25,-432 637.25,-438 637.25,-444 637.25,-444 637.25,-456 637.25,-456 637.25,-462 631.25,-468 625.25,-468"/>
<text text-anchor="middle" x="554" y="-453" font-family="sans" font-size="10.00">scSplit_sam_header</text>
<text text-anchor="middle" x="554" y="-442" font-family="sans" font-size="10.00">pool: OneK1K_scRNA_Sample1</text>
</g>
<!-- 17&#45;&gt;16 -->
<g id="edge23" class="edge"><title>17&#45;&gt;16</title>
<path fill="none" stroke="grey" stroke-width="2" d="M576.742,-431.697C588.44,-422.796 602.861,-411.823 615.51,-402.199"/>
<polygon fill="grey" stroke="grey" points="617.681,-404.945 623.52,-396.104 613.442,-399.374 617.681,-404.945"/>
</g>
<!-- 18 -->
<g id="node19" class="node"><title>18</title>
<path fill="none" stroke="#d87556" stroke-width="2" d="M810.25,-468C810.25,-468 667.75,-468 667.75,-468 661.75,-468 655.75,-462 655.75,-456 655.75,-456 655.75,-444 655.75,-444 655.75,-438 661.75,-432 667.75,-432 667.75,-432 810.25,-432 810.25,-432 816.25,-432 822.25,-438 822.25,-444 822.25,-444 822.25,-456 822.25,-456 822.25,-462 816.25,-468 810.25,-468"/>
<text text-anchor="middle" x="739" y="-453" font-family="sans" font-size="10.00">scSplit_sam_body</text>
<text text-anchor="middle" x="739" y="-442" font-family="sans" font-size="10.00">pool: OneK1K_scRNA_Sample1</text>
</g>
<!-- 18&#45;&gt;16 -->
<g id="edge24" class="edge"><title>18&#45;&gt;16</title>
<path fill="none" stroke="grey" stroke-width="2" d="M716.011,-431.697C704.186,-422.796 689.608,-411.823 676.821,-402.199"/>
<polygon fill="grey" stroke="grey" points="678.819,-399.322 668.724,-396.104 674.609,-404.915 678.819,-399.322"/>
</g>
</g>
</svg>
